<svg width="28" height="28" viewBox="0 0 28 28" fill="none" xmlns="http://www.w3.org/2000/svg">
<path d="M7.32136 22.1428C7.22612 22.2499 7.10707 22.2321 6.96422 22.0892C6.80945 21.9583 6.78564 21.8452 6.89279 21.7499C6.98803 21.6428 7.10707 21.6606 7.24993 21.8035C7.39279 21.9345 7.4166 22.0476 7.32136 22.1428ZM6.57136 21.0535C6.6785 21.1964 6.6785 21.3095 6.57136 21.3928C6.47612 21.4642 6.37493 21.4226 6.26779 21.2678C6.16064 21.113 6.16064 21.0059 6.26779 20.9464C6.37493 20.863 6.47612 20.8987 6.57136 21.0535ZM5.48207 19.9821C5.42255 20.0654 5.34517 20.0773 5.24993 20.0178C5.13088 19.9583 5.08922 19.8868 5.12493 19.8035C5.16064 19.744 5.23803 19.7321 5.35707 19.7678C5.47612 19.8273 5.51779 19.8987 5.48207 19.9821ZM6.03564 20.5892C5.96422 20.6726 5.86898 20.6547 5.74993 20.5356C5.64279 20.4047 5.63088 20.3095 5.71422 20.2499C5.78564 20.1785 5.88088 20.1964 5.99993 20.3035C6.10707 20.4345 6.11898 20.5297 6.03564 20.5892ZM8.33922 22.5892C8.2916 22.7321 8.1785 22.7678 7.99993 22.6964C7.79755 22.6487 7.72017 22.5595 7.76779 22.4285C7.81541 22.2976 7.9285 22.2559 8.10707 22.3035C8.29755 22.363 8.37493 22.4583 8.33922 22.5892ZM9.46422 22.6785C9.46422 22.8095 9.36898 22.8749 9.1785 22.8749C8.97612 22.8987 8.87493 22.8333 8.87493 22.6785C8.87493 22.5476 8.97017 22.4821 9.16064 22.4821C9.36303 22.4583 9.46422 22.5237 9.46422 22.6785ZM10.4999 22.4999C10.5237 22.619 10.4404 22.7023 10.2499 22.7499C10.0595 22.7976 9.95231 22.7499 9.9285 22.6071C9.90469 22.4642 9.98803 22.3749 10.1785 22.3392C10.369 22.3154 10.4761 22.369 10.4999 22.4999ZM27.7142 5.4285V22.5714C27.7142 23.988 27.2112 25.1993 26.2053 26.2053C25.1993 27.2112 23.988 27.7142 22.5714 27.7142H18.5714C18.3809 27.7142 18.2351 27.7083 18.1339 27.6964C18.0327 27.6845 17.9166 27.6547 17.7856 27.6071C17.6547 27.5595 17.5595 27.4731 17.4999 27.3481C17.4404 27.2231 17.4106 27.0595 17.4106 26.8571V22.5892C17.4106 21.4345 17.1011 20.5892 16.4821 20.0535C17.1606 19.9821 17.7708 19.8749 18.3124 19.7321C18.8541 19.5892 19.4136 19.3571 19.991 19.0356C20.5684 18.7142 21.0505 18.3184 21.4374 17.8481C21.8243 17.3779 22.1398 16.7529 22.3839 15.9731C22.6279 15.1934 22.7499 14.2975 22.7499 13.2856C22.7499 11.8452 22.2797 10.619 21.3392 9.60707C21.7797 8.52374 21.7321 7.30945 21.1964 5.96422C20.863 5.85707 20.3809 5.92255 19.7499 6.16064C19.119 6.39874 18.5714 6.66064 18.1071 6.94636L17.4285 7.37493C16.3214 7.06541 15.1785 6.91064 13.9999 6.91064C12.8214 6.91064 11.6785 7.06541 10.5714 7.37493C10.3809 7.24398 10.1279 7.08326 9.81243 6.89279C9.49695 6.70231 8.99993 6.47314 8.32136 6.20529C7.64279 5.93743 7.13088 5.85707 6.78564 5.96422C6.26184 7.30945 6.22017 8.52374 6.66064 9.60707C5.72017 10.619 5.24993 11.8452 5.24993 13.2856C5.24993 14.2975 5.37195 15.1904 5.616 15.9642C5.86005 16.738 6.17255 17.363 6.5535 17.8392C6.93445 18.3154 7.41362 18.7142 7.991 19.0356C8.56838 19.3571 9.12791 19.5892 9.66957 19.7321C10.2112 19.8749 10.8214 19.9821 11.4999 20.0535C11.0237 20.4821 10.7321 21.0952 10.6249 21.8928C10.3749 22.0118 10.1071 22.1011 9.82136 22.1606C9.53564 22.2202 9.19636 22.2499 8.8035 22.2499C8.41064 22.2499 8.02076 22.122 7.63386 21.866C7.24695 21.6101 6.9166 21.238 6.64279 20.7499C6.4166 20.369 6.12791 20.0595 5.77672 19.8214C5.42553 19.5833 5.13088 19.4404 4.89279 19.3928L4.53564 19.3392C4.28564 19.3392 4.11303 19.366 4.01779 19.4196C3.92255 19.4731 3.89279 19.5416 3.9285 19.6249C3.96422 19.7083 4.01779 19.7916 4.08922 19.8749C4.16064 19.9583 4.23803 20.0297 4.32136 20.0892L4.44636 20.1785C4.70826 20.2976 4.96719 20.5237 5.22314 20.8571C5.4791 21.1904 5.6666 21.494 5.78564 21.7678L5.96422 22.1785C6.11898 22.6309 6.38088 22.997 6.74993 23.2767C7.11898 23.5565 7.51779 23.7351 7.94636 23.8124C8.37493 23.8898 8.78862 23.9315 9.18743 23.9374C9.58624 23.9434 9.9166 23.9226 10.1785 23.8749L10.5892 23.8035C10.5892 24.2559 10.5922 24.869 10.5981 25.6428C10.6041 26.4166 10.6071 26.8214 10.6071 26.8571C10.6071 27.119 10.5416 27.3184 10.4106 27.4553C10.2797 27.5922 10.1487 27.6696 10.0178 27.6874C9.88684 27.7053 9.69041 27.7142 9.4285 27.7142H5.4285C4.01184 27.7142 2.80053 27.2112 1.79457 26.2053C0.788621 25.1993 0.285645 23.988 0.285645 22.5714V5.4285C0.285645 4.01184 0.788621 2.80053 1.79457 1.79457C2.80053 0.788621 4.01184 0.285645 5.4285 0.285645H22.5714C23.988 0.285645 25.1993 0.788621 26.2053 1.79457C27.2112 2.80053 27.7142 4.01184 27.7142 5.4285Z" fill="#0038C8"/>
</svg>
