<svg width="44" height="42" viewBox="0 0 44 42" fill="none" xmlns="http://www.w3.org/2000/svg">
<path d="M36.9302 4.375H6.30518L9.00738 34.125L21.6177 37.625L34.228 34.125L36.9302 4.375Z" fill="#E65100"/>
<path d="M21.6177 7V34.9125L31.7059 32.1125L33.9578 7H21.6177Z" fill="#FF6D00"/>
<path d="M21.6177 21.875V18.375H29.364L28.7335 28.4375L21.6177 30.7125V27.0375L25.3107 25.8125L25.5809 21.875H21.6177ZM29.6342 14.875L29.9044 11.375H21.6177V14.875H29.6342Z" fill="white"/>
<path d="M21.6177 27.0375V30.7125L14.5019 28.4375L14.1416 23.625H17.7445L17.9247 25.8125L21.6177 27.0375ZM17.2041 14.875H21.6177V11.375H13.421L14.0515 21.875H21.6177V18.375H17.4743L17.2041 14.875Z" fill="#EEEEEE"/>
</svg>
