<svg width="44" height="42" viewBox="0 0 44 42" fill="none" xmlns="http://www.w3.org/2000/svg">
<path d="M6.11011 36.75V5.25H38.5366V36.75H6.11011Z" fill="#F7DF1E"/>
<path d="M27.3116 28.8286C27.9349 29.8121 28.6123 30.7545 30.0471 30.7545C31.2523 30.7545 31.8847 30.1726 31.8847 29.3676C31.8847 28.4042 31.2307 28.0621 29.9048 27.5012L29.1779 27.2002C27.0801 26.3357 25.6849 25.2525 25.6849 22.9644C25.6849 20.8556 27.3467 19.2509 29.9436 19.2509C31.7928 19.2509 33.1214 19.873 34.0797 21.5022L31.8153 22.9084C31.3172 22.0439 30.7785 21.7035 29.9436 21.7035C29.0915 21.7035 28.5519 22.2259 28.5519 22.9084C28.5519 23.7519 29.0924 24.0931 30.3399 24.6155L31.0668 24.9165C33.5393 25.9394 34.9336 26.9841 34.9336 29.3326C34.9336 31.8631 32.8764 33.25 30.1147 33.25C27.4134 33.25 25.8794 31.9331 25.0255 30.303L27.3116 28.8286ZM16.8757 28.9004C17.3315 29.6931 18.0241 30.303 19.0203 30.303C19.9733 30.303 20.5219 29.9373 20.5219 28.5154V19.25H23.524V28.9634C23.524 31.9095 21.7649 33.25 19.196 33.25C16.8748 33.25 15.1994 31.7222 14.5167 30.303L16.8757 28.9004Z" fill="#000001"/>
</svg>
