<svg width="30" height="30" viewBox="0 0 30 30" fill="none" xmlns="http://www.w3.org/2000/svg">
<path d="M24.409 0.125H4.98181C2.29963 0.125 0.125 2.29963 0.125 4.98181V24.409C0.125 27.0912 2.29963 29.2658 4.98181 29.2658H24.409C27.0912 29.2658 29.2658 27.0912 29.2658 24.409V4.98181C29.2658 2.29963 27.0912 0.125 24.409 0.125ZM9.83861 23.8019H6.80311V11.6599H9.83861V23.8019ZM9.85622 9.23697C9.46342 9.63766 8.95103 9.83861 8.32086 9.83861C7.69797 9.83861 7.18862 9.63159 6.79157 9.21755C6.39453 8.8035 6.19601 8.29536 6.19601 7.69433C6.19601 7.07509 6.39453 6.56998 6.79157 6.17779C7.18862 5.785 7.69797 5.58891 8.32086 5.58891C8.95103 5.58891 9.46342 5.785 9.85622 6.17719C10.249 6.56937 10.4457 7.07509 10.4457 7.69433C10.4457 8.32207 10.249 8.83629 9.85622 9.23697ZM23.8019 23.8019H20.7664V17.0552C20.7664 15.1738 19.6821 14.0883 18.338 14.0883C17.6902 14.0883 16.9575 14.4817 16.538 14.9801C16.1185 15.4786 15.9096 16.1106 15.9096 16.8773V23.8019H12.8741V11.6599H15.9096V13.5808H15.957C16.8506 12.1025 18.1504 11.3685 19.8582 11.3636C22.2842 11.3564 23.8019 13.1777 23.8019 16.3674V23.8019Z" fill="#141414"/>
</svg>
