<svg width="30" height="30" viewBox="0 0 30 30" fill="none" xmlns="http://www.w3.org/2000/svg">
<path d="M7.90391 23.6518C7.80272 23.7656 7.67623 23.7466 7.52445 23.5949C7.36001 23.4557 7.33472 23.3356 7.44856 23.2344C7.54975 23.1205 7.67623 23.1395 7.82802 23.2913C7.97981 23.4304 8.0051 23.5506 7.90391 23.6518ZM7.10704 22.4944C7.22088 22.6462 7.22088 22.7664 7.10704 22.8549C7.00585 22.9308 6.89833 22.8865 6.78449 22.7221C6.67065 22.5577 6.67065 22.4438 6.78449 22.3806C6.89833 22.292 7.00585 22.33 7.10704 22.4944ZM5.94967 21.356C5.88643 21.4446 5.80421 21.4572 5.70302 21.394C5.57653 21.3307 5.53226 21.2548 5.57021 21.1663C5.60815 21.103 5.69037 21.0904 5.81686 21.1283C5.94335 21.1916 5.98762 21.2675 5.94967 21.356ZM6.53784 22.0011C6.46195 22.0896 6.36076 22.0707 6.23427 21.9442C6.12043 21.805 6.10778 21.7039 6.19632 21.6406C6.27222 21.5647 6.37341 21.5837 6.4999 21.6975C6.61373 21.8367 6.62638 21.9379 6.53784 22.0011ZM8.98539 24.1261C8.93479 24.2779 8.81463 24.3158 8.6249 24.2399C8.40987 24.1893 8.32765 24.0945 8.37824 23.9553C8.42884 23.8162 8.549 23.7719 8.73873 23.8225C8.94112 23.8858 9.02333 23.987 8.98539 24.1261ZM10.1807 24.221C10.1807 24.3601 10.0795 24.4297 9.87713 24.4297C9.6621 24.455 9.55458 24.3854 9.55458 24.221C9.55458 24.0818 9.65577 24.0123 9.85815 24.0123C10.0732 23.987 10.1807 24.0565 10.1807 24.221ZM11.2811 24.0312C11.3064 24.1577 11.2179 24.2463 11.0155 24.2969C10.8131 24.3475 10.6993 24.2969 10.674 24.1451C10.6487 23.9933 10.7372 23.8984 10.9396 23.8605C11.142 23.8352 11.2558 23.8921 11.2811 24.0312ZM29.5713 5.89284V24.1071C29.5713 25.6123 29.0369 26.8994 27.9681 27.9682C26.8993 29.037 25.6122 29.5714 24.107 29.5714H19.857C19.6547 29.5714 19.4997 29.5651 19.3922 29.5524C19.2847 29.5398 19.1614 29.5082 19.0222 29.4576C18.8831 29.407 18.7819 29.3153 18.7186 29.1825C18.6554 29.0497 18.6238 28.8757 18.6238 28.6607V24.1261C18.6238 22.8992 18.2949 22.0011 17.6372 21.4319C18.3582 21.356 19.0064 21.2422 19.5819 21.0904C20.1574 20.9386 20.7519 20.692 21.3654 20.3504C21.9789 20.0089 22.4912 19.5883 22.9022 19.0887C23.3133 18.5891 23.6485 17.925 23.9078 17.0965C24.1671 16.268 24.2968 15.3162 24.2968 14.2411C24.2968 12.7106 23.7971 11.4077 22.7979 10.3326C23.2659 9.18153 23.2153 7.89136 22.6461 6.46204C22.2919 6.3482 21.7797 6.41777 21.1093 6.67075C20.4389 6.92372 19.857 7.202 19.3637 7.50557L18.6428 7.96092C17.4664 7.63206 16.2521 7.46762 14.9999 7.46762C13.7477 7.46762 12.5334 7.63206 11.357 7.96092C11.1547 7.82179 10.8859 7.65103 10.5507 7.44865C10.2155 7.24627 9.6874 7.00278 8.96641 6.71818C8.24543 6.43358 7.70153 6.3482 7.33472 6.46204C6.77817 7.89136 6.7339 9.18153 7.2019 10.3326C6.20265 11.4077 5.70302 12.7106 5.70302 14.2411C5.70302 15.3162 5.83267 16.2649 6.09197 17.087C6.35127 17.9092 6.6833 18.5733 7.08807 19.0792C7.49283 19.5852 8.00194 20.0089 8.61541 20.3504C9.22888 20.692 9.82337 20.9386 10.3989 21.0904C10.9744 21.2422 11.6227 21.356 12.3436 21.4319C11.8377 21.8873 11.5278 22.5387 11.414 23.3861C11.1483 23.5126 10.8637 23.6075 10.5602 23.6707C10.2566 23.734 9.8961 23.7656 9.47869 23.7656C9.06128 23.7656 8.64703 23.6296 8.23594 23.3577C7.82486 23.0857 7.47385 22.6905 7.18293 22.1719C6.9426 21.7671 6.63587 21.4382 6.26273 21.1853C5.88959 20.9323 5.57653 20.7805 5.32356 20.7299L4.94409 20.673C4.67847 20.673 4.49506 20.7014 4.39387 20.7584C4.29268 20.8153 4.26106 20.888 4.299 20.9765C4.33695 21.0651 4.39387 21.1536 4.46976 21.2422C4.54565 21.3307 4.62787 21.4066 4.71641 21.4699L4.84923 21.5647C5.1275 21.6912 5.40261 21.9315 5.67456 22.2857C5.94651 22.6399 6.14573 22.9624 6.27222 23.2533L6.46195 23.6897C6.62638 24.1704 6.90466 24.5593 7.29677 24.8566C7.68888 25.1538 8.11262 25.3436 8.56798 25.4258C9.02333 25.508 9.46288 25.5523 9.88661 25.5586C10.3103 25.5649 10.6614 25.5428 10.9396 25.4922L11.376 25.4163C11.376 25.8969 11.3792 26.5484 11.3855 27.3705C11.3918 28.1927 11.395 28.6228 11.395 28.6607C11.395 28.939 11.3254 29.1508 11.1863 29.2963C11.0471 29.4418 10.908 29.524 10.7689 29.543C10.6297 29.5619 10.421 29.5714 10.1428 29.5714H5.89275C4.38754 29.5714 3.10053 29.037 2.0317 27.9682C0.962879 26.8994 0.428467 25.6123 0.428467 24.1071V5.89284C0.428467 4.38764 0.962879 3.10062 2.0317 2.03179C3.10053 0.962971 4.38754 0.428558 5.89275 0.428558H24.107C25.6122 0.428558 26.8993 0.962971 27.9681 2.03179C29.0369 3.10062 29.5713 4.38764 29.5713 5.89284Z" fill="#141414"/>
</svg>
