<svg width="28" height="27" viewBox="0 0 28 27" fill="none" xmlns="http://www.w3.org/2000/svg">
<path d="M23.0788 0.875H5.36576C2.92026 0.875 0.9375 2.7938 0.9375 5.16042V22.3021C0.9375 24.6687 2.92026 26.5875 5.36576 26.5875H23.0788C25.5243 26.5875 27.5071 24.6687 27.5071 22.3021V5.16042C27.5071 2.7938 25.5243 0.875 23.0788 0.875ZM9.79403 21.7664H7.02636V11.0529H9.79403V21.7664ZM9.81008 8.91498C9.45194 9.26852 8.98476 9.44583 8.4102 9.44583C7.84227 9.44583 7.37786 9.26317 7.01585 8.89784C6.65384 8.5325 6.47283 8.08414 6.47283 7.55382C6.47283 7.00743 6.65384 6.56175 7.01585 6.2157C7.37786 5.86912 7.84227 5.69609 8.4102 5.69609C8.98476 5.69609 9.45194 5.86912 9.81008 6.21516C10.1682 6.56121 10.3476 7.00743 10.3476 7.55382C10.3476 8.10771 10.1682 8.56143 9.81008 8.91498ZM22.5253 21.7664H19.7576V15.8134C19.7576 14.1534 18.769 13.1956 17.5435 13.1956C16.9529 13.1956 16.2848 13.5427 15.9023 13.9825C15.5198 14.4223 15.3294 14.9799 15.3294 15.6565V21.7664H12.5617V11.0529H15.3294V12.7477H15.3725C16.1873 11.4434 17.3724 10.7957 18.9295 10.7915C21.1415 10.785 22.5253 12.3921 22.5253 15.2065V21.7664Z" fill="#F5F5F5"/>
</svg>
