<svg width="44" height="42" viewBox="0 0 44 42" fill="none" xmlns="http://www.w3.org/2000/svg">
<path d="M37.2832 4.375H6.6582L9.36041 34.125L21.9707 37.625L34.581 34.125L37.2832 4.375Z" fill="#0277BD"/>
<path d="M21.9707 7V34.9125L32.0589 32.1125L34.3108 7H21.9707Z" fill="#039BE5"/>
<path d="M30.1674 11.375H21.9707V14.875H26.3843L26.1141 18.375H21.9707V21.875H25.9339L25.6637 25.8125L21.9707 27.0375V30.7125L29.0865 28.4375L29.717 18.375L30.1674 11.375Z" fill="white"/>
<path d="M21.9707 11.375V14.875H13.9542L13.6839 11.375H21.9707ZM17.8273 18.375L18.0075 21.875H21.9707V18.375H17.8273ZM18.1876 23.625H14.5847L14.8549 28.4375L21.9707 30.7125V27.0375L18.2777 25.8125L18.1876 23.625Z" fill="#EEEEEE"/>
</svg>
