<svg width="27" height="26" viewBox="0 0 27 26" fill="none" xmlns="http://www.w3.org/2000/svg">
<path d="M7.03008 20.6341C6.93782 20.7346 6.82249 20.7178 6.6841 20.5839C6.53417 20.4611 6.51111 20.3551 6.6149 20.2658C6.70716 20.1654 6.82249 20.1821 6.96088 20.3161C7.09928 20.4388 7.12234 20.5449 7.03008 20.6341ZM6.30352 19.6129C6.40731 19.7469 6.40731 19.8529 6.30352 19.931C6.21126 19.998 6.11323 19.9589 6.00943 19.8138C5.90564 19.6687 5.90564 19.5683 6.00943 19.5125C6.11323 19.4344 6.21126 19.4678 6.30352 19.6129ZM5.24827 18.6085C5.19061 18.6866 5.11565 18.6978 5.02338 18.6419C4.90806 18.5861 4.86769 18.5192 4.90229 18.4411C4.93689 18.3853 5.01185 18.3741 5.12718 18.4076C5.24251 18.4634 5.28287 18.5303 5.24827 18.6085ZM5.78455 19.1777C5.71535 19.2558 5.62309 19.239 5.50776 19.1274C5.40397 19.0047 5.39243 18.9154 5.47316 18.8596C5.54236 18.7926 5.63462 18.8094 5.74995 18.9098C5.85374 19.0326 5.86527 19.1219 5.78455 19.1777ZM8.01613 21.0527C7.97 21.1866 7.86044 21.2201 7.68745 21.1531C7.49139 21.1085 7.41643 21.0248 7.46256 20.902C7.50869 20.7792 7.61825 20.7402 7.79124 20.7848C7.97577 20.8406 8.05073 20.9299 8.01613 21.0527ZM9.10597 21.1364C9.10597 21.2591 9.01371 21.3205 8.82919 21.3205C8.63313 21.3428 8.5351 21.2815 8.5351 21.1364C8.5351 21.0136 8.62737 20.9522 8.81189 20.9522C9.00795 20.9299 9.10597 20.9913 9.10597 21.1364ZM10.1093 20.969C10.1324 21.0806 10.0517 21.1587 9.86713 21.2033C9.68261 21.248 9.57882 21.2033 9.55575 21.0694C9.53269 20.9355 9.61341 20.8518 9.79794 20.8183C9.98246 20.796 10.0863 20.8462 10.1093 20.969ZM26.7857 4.96449V21.0359C26.7857 22.364 26.2984 23.4997 25.3239 24.4427C24.3494 25.3858 23.1759 25.8574 21.8035 25.8574H17.9285C17.744 25.8574 17.6027 25.8518 17.5047 25.8406C17.4067 25.8294 17.2942 25.8015 17.1674 25.7569C17.0405 25.7123 16.9482 25.6313 16.8906 25.5142C16.8329 25.397 16.8041 25.2435 16.8041 25.0538V21.0527C16.8041 19.9701 16.5042 19.1777 15.9045 18.6754C16.5619 18.6085 17.1529 18.508 17.6777 18.3741C18.2024 18.2402 18.7445 18.0225 19.3038 17.7212C19.8631 17.4199 20.3302 17.0488 20.705 16.6079C21.0798 16.1671 21.3855 15.5811 21.6219 14.8501C21.8583 14.1191 21.9765 13.2792 21.9765 12.3306C21.9765 10.9801 21.521 9.83057 20.6099 8.88191C21.0366 7.86628 20.9905 6.72789 20.4715 5.46673C20.1486 5.36628 19.6815 5.42766 19.0703 5.65088C18.459 5.87409 17.9285 6.11963 17.4787 6.38749L16.8214 6.78927C15.7488 6.49909 14.6417 6.354 13.4999 6.354C12.3582 6.354 11.2511 6.49909 10.1785 6.78927C9.99399 6.6665 9.74892 6.51583 9.44331 6.33726C9.13769 6.15869 8.6562 5.94385 7.99883 5.69273C7.34147 5.44162 6.84556 5.36628 6.51111 5.46673C6.00367 6.72789 5.9633 7.86628 6.39001 8.88191C5.47893 9.83057 5.02338 10.9801 5.02338 12.3306C5.02338 13.2792 5.1416 14.1163 5.37802 14.8417C5.61444 15.5672 5.91717 16.1531 6.28622 16.5995C6.65527 17.046 7.11946 17.4199 7.6788 17.7212C8.23814 18.0225 8.78017 18.2402 9.30491 18.3741C9.82965 18.508 10.4207 18.6085 11.0781 18.6754C10.6168 19.0772 10.3342 19.652 10.2304 20.3998C9.98823 20.5114 9.72874 20.5951 9.45196 20.6509C9.17517 20.7067 8.84649 20.7346 8.46591 20.7346C8.08533 20.7346 7.70763 20.6146 7.33282 20.3747C6.958 20.1347 6.63797 19.7859 6.37272 19.3283C6.15359 18.9712 5.87392 18.681 5.53371 18.4578C5.19349 18.2346 4.90806 18.1007 4.6774 18.056L4.33142 18.0058C4.08923 18.0058 3.92201 18.0309 3.82975 18.0811C3.73748 18.1313 3.70865 18.1955 3.74325 18.2736C3.77785 18.3518 3.82975 18.4299 3.89894 18.508C3.96814 18.5861 4.0431 18.6531 4.12383 18.7089L4.24493 18.7926C4.49865 18.9042 4.74948 19.1163 4.99744 19.4288C5.24539 19.7413 5.42703 20.0259 5.54236 20.2826L5.71535 20.6676C5.86527 21.0917 6.119 21.4349 6.47651 21.6972C6.83402 21.9595 7.22037 22.1269 7.63555 22.1994C8.05073 22.272 8.45149 22.311 8.83784 22.3166C9.22418 22.3222 9.54422 22.3027 9.79794 22.258L10.1958 22.1911C10.1958 22.6152 10.1987 23.1899 10.2045 23.9154C10.2102 24.6408 10.2131 25.0203 10.2131 25.0538C10.2131 25.2993 10.1497 25.4863 10.0228 25.6146C9.89597 25.743 9.76911 25.8155 9.64225 25.8322C9.51539 25.849 9.3251 25.8574 9.07138 25.8574H5.19638C3.82398 25.8574 2.65052 25.3858 1.67601 24.4427C0.701492 23.4997 0.214233 22.364 0.214233 21.0359V4.96449C0.214233 3.63637 0.701492 2.50077 1.67601 1.55769C2.65052 0.614607 3.82398 0.143066 5.19638 0.143066H21.8035C23.1759 0.143066 24.3494 0.614607 25.3239 1.55769C26.2984 2.50077 26.7857 3.63637 26.7857 4.96449Z" fill="#F5F5F5"/>
</svg>
