<svg width="237" height="35" viewBox="0 0 237 35" fill="none" xmlns="http://www.w3.org/2000/svg">
<path d="M18.1441 3.53598V7.91998H12.1921V26H6.72007V7.91998H0.768066V3.53598H18.1441Z" fill="#141414"/>
<path d="M31.8663 7.95198C33.9143 7.95198 35.557 8.63465 36.7943 9.99998C38.0316 11.344 38.6503 13.2 38.6503 15.568V26H33.2103V16.304C33.2103 15.1093 32.901 14.1813 32.2823 13.52C31.6636 12.8586 30.8316 12.528 29.7863 12.528C28.741 12.528 27.909 12.8586 27.2903 13.52C26.6717 14.1813 26.3623 15.1093 26.3623 16.304V26H20.8903V2.31998H26.3623V10.544C26.917 9.75465 27.6743 9.12531 28.6343 8.65598C29.5943 8.18665 30.6717 7.95198 31.8663 7.95198Z" fill="#141414"/>
<path d="M45.2048 6.28798C44.2448 6.28798 43.4555 6.01065 42.8368 5.45598C42.2395 4.87998 41.9408 4.17598 41.9408 3.34398C41.9408 2.49065 42.2395 1.78665 42.8368 1.23198C43.4555 0.655981 44.2448 0.367981 45.2048 0.367981C46.1435 0.367981 46.9115 0.655981 47.5088 1.23198C48.1275 1.78665 48.4368 2.49065 48.4368 3.34398C48.4368 4.17598 48.1275 4.87998 47.5088 5.45598C46.9115 6.01065 46.1435 6.28798 45.2048 6.28798ZM47.9248 8.14398V26H42.4528V8.14398H47.9248Z" fill="#141414"/>
<path d="M50.8023 17.04C50.8023 15.2053 51.1437 13.5946 51.8263 12.208C52.5303 10.8213 53.4796 9.75465 54.6743 9.00798C55.869 8.26132 57.2023 7.88798 58.6743 7.88798C59.933 7.88798 61.0317 8.14398 61.9703 8.65598C62.9303 9.16798 63.6663 9.83998 64.1783 10.672V8.14398H69.6503V26H64.1783V23.472C63.645 24.304 62.8983 24.976 61.9383 25.488C60.9996 26 59.901 26.256 58.6423 26.256C57.1916 26.256 55.869 25.8826 54.6743 25.136C53.4796 24.368 52.5303 23.2906 51.8263 21.904C51.1437 20.496 50.8023 18.8746 50.8023 17.04ZM64.1783 17.072C64.1783 15.7066 63.7943 14.6293 63.0263 13.84C62.2797 13.0506 61.3623 12.656 60.2743 12.656C59.1863 12.656 58.2583 13.0506 57.4903 13.84C56.7437 14.608 56.3703 15.6746 56.3703 17.04C56.3703 18.4053 56.7437 19.4933 57.4903 20.304C58.2583 21.0933 59.1863 21.488 60.2743 21.488C61.3623 21.488 62.2797 21.0933 63.0263 20.304C63.7943 19.5146 64.1783 18.4373 64.1783 17.072Z" fill="#141414"/>
<path d="M80.3931 7.88798C81.6517 7.88798 82.7504 8.14398 83.6891 8.65598C84.6491 9.16798 85.3851 9.83998 85.8971 10.672V8.14398H91.3691V25.968C91.3691 27.6107 91.0384 29.0933 90.3771 30.416C89.7371 31.76 88.7451 32.8266 87.4011 33.616C86.0784 34.4053 84.4251 34.8 82.4411 34.8C79.7957 34.8 77.6517 34.1707 76.0091 32.912C74.3664 31.6747 73.4277 29.9893 73.1931 27.856H78.6011C78.7717 28.5387 79.1771 29.072 79.8171 29.456C80.4571 29.8613 81.2464 30.064 82.1851 30.064C83.3157 30.064 84.2117 29.7333 84.8731 29.072C85.5557 28.432 85.8971 27.3973 85.8971 25.968V23.44C85.3637 24.272 84.6277 24.9547 83.6891 25.488C82.7504 26 81.6517 26.256 80.3931 26.256C78.9211 26.256 77.5877 25.8826 76.3931 25.136C75.1984 24.368 74.2491 23.2906 73.5451 21.904C72.8624 20.496 72.5211 18.8746 72.5211 17.04C72.5211 15.2053 72.8624 13.5946 73.5451 12.208C74.2491 10.8213 75.1984 9.75465 76.3931 9.00798C77.5877 8.26132 78.9211 7.88798 80.3931 7.88798ZM85.8971 17.072C85.8971 15.7066 85.5131 14.6293 84.7451 13.84C83.9984 13.0506 83.0811 12.656 81.9931 12.656C80.9051 12.656 79.9771 13.0506 79.2091 13.84C78.4624 14.608 78.0891 15.6746 78.0891 17.04C78.0891 18.4053 78.4624 19.4933 79.2091 20.304C79.9771 21.0933 80.9051 21.488 81.9931 21.488C83.0811 21.488 83.9984 21.0933 84.7451 20.304C85.5131 19.5146 85.8971 18.4373 85.8971 17.072Z" fill="#141414"/>
<path d="M103.456 26.256C101.706 26.256 100.128 25.8826 98.7198 25.136C97.3332 24.3893 96.2345 23.3226 95.4238 21.936C94.6345 20.5493 94.2398 18.928 94.2398 17.072C94.2398 15.2373 94.6452 13.6266 95.4558 12.24C96.2665 10.832 97.3758 9.75465 98.7838 9.00798C100.192 8.26132 101.77 7.88798 103.52 7.88798C105.269 7.88798 106.848 8.26132 108.256 9.00798C109.664 9.75465 110.773 10.832 111.584 12.24C112.394 13.6266 112.8 15.2373 112.8 17.072C112.8 18.9067 112.384 20.528 111.552 21.936C110.741 23.3226 109.621 24.3893 108.192 25.136C106.784 25.8826 105.205 26.256 103.456 26.256ZM103.456 21.52C104.501 21.52 105.386 21.136 106.112 20.368C106.858 19.6 107.232 18.5013 107.232 17.072C107.232 15.6427 106.869 14.544 106.144 13.776C105.44 13.008 104.565 12.624 103.52 12.624C102.453 12.624 101.568 13.008 100.864 13.776C100.16 14.5226 99.8078 15.6213 99.8078 17.072C99.8078 18.5013 100.149 19.6 100.832 20.368C101.536 21.136 102.41 21.52 103.456 21.52Z" fill="#141414"/>
<path d="M147.924 3.53598V26H142.452V12.528L137.428 26H133.012L127.956 12.496V26H122.484V3.53598H128.948L135.252 19.088L141.492 3.53598H147.924Z" fill="#141414"/>
<path d="M150.771 17.04C150.771 15.2053 151.112 13.5946 151.795 12.208C152.499 10.8213 153.448 9.75465 154.643 9.00798C155.838 8.26132 157.171 7.88798 158.643 7.88798C159.902 7.88798 161 8.14398 161.939 8.65598C162.899 9.16798 163.635 9.83998 164.147 10.672V8.14398H169.619V26H164.147V23.472C163.614 24.304 162.867 24.976 161.907 25.488C160.968 26 159.87 26.256 158.611 26.256C157.16 26.256 155.838 25.8826 154.643 25.136C153.448 24.368 152.499 23.2906 151.795 21.904C151.112 20.496 150.771 18.8746 150.771 17.04ZM164.147 17.072C164.147 15.7066 163.763 14.6293 162.995 13.84C162.248 13.0506 161.331 12.656 160.243 12.656C159.155 12.656 158.227 13.0506 157.459 13.84C156.712 14.608 156.339 15.6746 156.339 17.04C156.339 18.4053 156.712 19.4933 157.459 20.304C158.227 21.0933 159.155 21.488 160.243 21.488C161.331 21.488 162.248 21.0933 162.995 20.304C163.763 19.5146 164.147 18.4373 164.147 17.072Z" fill="#141414"/>
<path d="M179.05 11.12C179.69 10.1386 180.49 9.37065 181.45 8.81598C182.41 8.23998 183.476 7.95198 184.65 7.95198V13.744H183.146C181.78 13.744 180.756 14.0426 180.074 14.64C179.391 15.216 179.05 16.24 179.05 17.712V26H173.578V8.14398H179.05V11.12Z" fill="#141414"/>
<path d="M190.017 6.28798C189.057 6.28798 188.268 6.01065 187.649 5.45598C187.052 4.87998 186.753 4.17598 186.753 3.34398C186.753 2.49065 187.052 1.78665 187.649 1.23198C188.268 0.655981 189.057 0.367981 190.017 0.367981C190.956 0.367981 191.724 0.655981 192.321 1.23198C192.94 1.78665 193.249 2.49065 193.249 3.34398C193.249 4.17598 192.94 4.87998 192.321 5.45598C191.724 6.01065 190.956 6.28798 190.017 6.28798ZM192.737 8.14398V26H187.265V8.14398H192.737Z" fill="#141414"/>
<path d="M219.487 7.95198C221.705 7.95198 223.465 8.62398 224.767 9.96798C226.089 11.312 226.751 13.1786 226.751 15.568V26H221.311V16.304C221.311 15.152 221.001 14.2666 220.383 13.648C219.785 13.008 218.953 12.688 217.887 12.688C216.82 12.688 215.977 13.008 215.359 13.648C214.761 14.2666 214.463 15.152 214.463 16.304V26H209.023V16.304C209.023 15.152 208.713 14.2666 208.095 13.648C207.497 13.008 206.665 12.688 205.599 12.688C204.532 12.688 203.689 13.008 203.071 13.648C202.473 14.2666 202.175 15.152 202.175 16.304V26H196.703V8.14398H202.175V10.384C202.729 9.63732 203.455 9.05065 204.351 8.62398C205.247 8.17598 206.26 7.95198 207.391 7.95198C208.735 7.95198 209.929 8.23998 210.975 8.81598C212.041 9.39198 212.873 10.2133 213.471 11.28C214.089 10.2986 214.932 9.49865 215.999 8.87998C217.065 8.26132 218.228 7.95198 219.487 7.95198Z" fill="#141414"/>
<path d="M233.138 26.256C232.178 26.256 231.388 25.9786 230.77 25.424C230.172 24.848 229.874 24.144 229.874 23.312C229.874 22.4586 230.172 21.744 230.77 21.168C231.388 20.592 232.178 20.304 233.138 20.304C234.076 20.304 234.844 20.592 235.442 21.168C236.06 21.744 236.37 22.4586 236.37 23.312C236.37 24.144 236.06 24.848 235.442 25.424C234.844 25.9786 234.076 26.256 233.138 26.256Z" fill="#141414"/>
</svg>
